<svg width="48" height="48" viewBox="0 0 48 48" fill="none" xmlns="http://www.w3.org/2000/svg">
<path d="M5.00297 12.7644C5.59203 12.1754 6.2965 11.8809 7.1164 11.8809C7.93631 11.8809 8.64078 12.1754 9.22983 12.7644L24.1074 27.6659L39.0089 12.7644C39.598 12.1754 40.3025 11.8809 41.1224 11.8809C41.9423 11.8809 42.6467 12.1754 43.2358 12.7644C43.8249 13.3535 44.1194 14.0619 44.1194 14.8898C44.1194 15.7177 43.8249 16.4261 43.2358 17.0152L24.1074 36.1197L5.00297 17.0152C4.41391 16.3943 4.11939 15.6858 4.11939 14.8898C4.11939 14.0938 4.41391 13.3853 5.00297 12.7644Z" fill="#60748F"/>
</svg>
