<svg width="77" height="35" fill="none" xmlns="http://www.w3.org/2000/svg"><path d="M15.7458 20.7825c-3.7407 0-6.69851 3.2313-6.69851 7.1088C9.04729 31.8611 12.092 35 15.7458 35c3.7407 0 6.6984-3.2312 6.6984-7.1087s-2.9577-7.1088-6.6984-7.1088zm0 9.7861c-1.3919 0-2.5228-1.2002-2.5228-2.6773 0-1.4772 1.1309-2.6774 2.5228-2.6774 1.3918 0 2.5228 1.2002 2.5228 2.6774 0 1.4771-1.131 2.6773-2.5228 2.6773zm48.6291-9.7861c-3.7407 0-6.6984 3.2313-6.6984 7.1088 0 3.9698 3.0447 7.1087 6.6984 7.1087 3.7407 0 6.6985-3.2312 6.6985-7.1087s-3.0448-7.1088-6.6985-7.1088zm0 9.7861c-1.3919 0-2.5228-1.2002-2.5228-2.6773 0-1.4772 1.1309-2.6774 2.5228-2.6774 1.3919 0 2.5228 1.2002 2.5228 2.6774 0 1.4771-1.1309 2.6773-2.5228 2.6773zM76.032 22.352h-.9569v-3.6005c0-1.2002-.087-3.0466-.609-4.6161-.5219-1.5695-1.4789-3.5082-4.1756-3.8775-1.8269-.27695-5.8286-.27695-8.6124-.1846-1.6528.0923-2.3488.7385-2.7837.8309-.696.1846-1.044-.3693-1.2179-.7386 0 0-1.218-5.81625-1.3049-6.18553-.174-.64625.1739-1.01553.6959-1.01553h1.0439C57.5025 1.57972 56.1976.564185 54.4577.287221c-1.4789-.3692848-8.9603-.2769629-8.9603-.2769629-2.3488 0-4.1757 1.7541019-4.1757 4.2467719V16.905h-1.3049V1.67204c0-.36929-.2609-.64625-.6089-.64625h-.522c-.3479 0-.6089.27696-.6089.64625V16.905h-4.4367v-1.5694h2.6968c.348 0 .609-.277.609-.6463v-1.1078c0-.3693-.261-.6463-.609-.6463h-2.6968v-1.5694h2.6968c.348 0 .609-.277.609-.6463V9.61167c0-.36929-.261-.64625-.609-.64625h-2.6968V7.39596h2.6968c.348 0 .609-.27697.609-.64625V5.64185c0-.36928-.261-.64625-.609-.64625h-2.6968V4.534c0-.36929-.2609-.64625-.6089-.64625h-.348c-.348 0-.6089.27696-.6089.64625v.4616H21.4873v-.36928c0-.36929-.261-.64625-.6089-.64625h-.348c-.348 0-.609.27696-.609.64625v.4616H9.13428v-.4616c0-.36929-.26098-.64625-.60895-.64625h-.34797c-.34798 0-.60896.27696-.60896.64625v.4616H.608952C.260979 5.08792 0 5.36489 0 5.73417v1.10786c0 .36928.260979.64624.608952.64624H7.48141v1.56947H.608952C.260979 9.05774 0 9.3347 0 9.70399v1.10781c0 .3693.260979.6463.608952.6463H7.48141v1.4771H.608952c-.347973 0-.608952.277-.608952.6463v1.1078c0 .3693.260979.6463.608952.6463H7.48141v1.5694H3.04476c-.78294 0-1.47888.6463-1.47888 1.5695v6.2778c0 .8309.60895 1.5695 1.47888 1.5695h4.87162c.69594-3.8775 4.00172-6.8318 7.82942-6.8318s7.1334 2.9543 7.8293 6.8318h18.1816c.696 1.4771 2.0878 2.4004 3.7407 2.4004h3.9147c.348-.6463.8699-1.7541 1.7399-3.2313h-4.6977c-1.2179 0-2.1748-1.0155-2.1748-2.308v-1.8464c0-.3693.261-.6463.609-.6463.3479 0 .6089.277.6089.6463v1.8464c0 .4616.348.9232.8699.9232h5.4806c.087-.1846.261-.3693.348-.5539 1.9138-3.4159 3.8277-5.447 6.6115-7.0164 2.5228-1.3849 6.8724-2.3081 10.9611-.0924 2.2618 1.2002 3.7407 3.3236 4.6106 5.447 0 .0923.435 1.2002.609 2.4927.174 1.3848.087 1.7541.087 1.7541h.9569c.522 0 .9569-.4616.9569-1.0156v-1.6618c.087-.6462-.3479-1.1078-.9569-1.1078zM9.13428 7.48827H19.9214v1.56947H9.13428V7.48827zm0 3.87753H19.9214v1.5694H9.13428v-1.5694zm0 5.5392v-1.5694H19.9214v1.5694H9.13428zm23.14022 0H21.4873v-1.5694h10.7872v1.5694zm0-3.9698H21.4873v-1.5694h10.7872v1.5694zm0-3.87746H21.4873V7.48827h10.7872v1.56947zm15.2238 6.55476h-2.7838c-.348 0-.609-.2769-.609-.6462s.261-.6463.609-.6463h2.7838c.3479 0 .6089.277.6089.6463 0 .277-.261.6462-.6089.6462zm7.1334-4.5237h-8.6993c-.609 0-1.1309-.5539-1.1309-1.20017V4.34936c0-.8309.6089-1.47714 1.4788-1.47714h7.0465c.522 0 1.1309.55392 1.3049 1.20017.087.36929 1.0439 5.35463 1.1309 5.81624.174.64627-.522 1.20017-1.1309 1.20017zm14.6148 6.5548c-3.3927-1.8464-7.3944-1.2925-9.7432.0923-2.6098 1.4772-4.2627 3.3236-6.0895 6.4625-.174.277-.348.5539-.435.8309 0 .0923-.087.1847-.174.277-.7829 1.4771-1.4788 2.585-1.8268 3.4159h5.3936v-.7386c0-4.7084 3.5667-8.4936 8.0033-8.4936 3.9147 0 7.2205 3.0466 7.9164 7.0164h1.3049c.087 0 .174-.0923.174-.1846.435-2.2157-.7829-6.7394-4.5237-8.6782z" fill="#2F80ED"/></svg>