<svg width="216" height="36" fill="none" xmlns="http://www.w3.org/2000/svg"><path fill-rule="evenodd" clip-rule="evenodd" d="M32 2H0v32h32V2zm-7 9.0255L16 7l-9 4.0255v5.9915c0 2.7773.85937 5.3128 2.57812 7.6064C11.2969 26.917 13.4375 28.3759 16 29c2.5625-.6241 4.7031-2.083 6.4219-4.3766C24.1406 22.3298 25 19.7943 25 17.017v-5.9915zm-9 15.9149V18h6.9844c-.25 2.0908-1.0156 3.9553-2.2969 5.5936-1.2813 1.6383-2.8437 2.7539-4.6875 3.3468zM16 18H9.01562v-5.7106L16 9.2V18z" fill="#fff"/><path d="M43.616 8.2V5.528h2.352c.224 0 .4373.02133.64.064.2133.032.4.096.56.192.16.096.288.22933.384.4.096.17067.144.38933.144.656 0 .48-.144.82667-.432 1.04-.288.21333-.656.32-1.104.32h-2.544zm-2.512-4.624V15h5.536c.512 0 1.008-.064 1.488-.192.4907-.128.9227-.3253 1.296-.592.384-.2667.688-.608.912-1.024.224-.4267.336-.928.336-1.504 0-.7147-.176-1.3227-.528-1.824-.3413-.512-.864-.86933-1.568-1.072.512-.24533.896-.56 1.152-.944.2667-.384.4-.864.4-1.44 0-.53333-.0907-.98133-.272-1.344-.1707-.36267-.416-.65067-.736-.864-.32-.224-.704-.384-1.152-.48-.448-.096-.944-.144-1.488-.144h-5.376zm2.512 9.472V9.912h2.736c.544 0 .9813.128 1.312.384.3307.2453.496.6613.496 1.248 0 .2987-.0533.544-.16.736-.096.192-.2293.3467-.4.464-.1707.1067-.368.1867-.592.24-.224.0427-.4587.064-.704.064h-2.688zm10.3536-9.472V15h8.672v-2.112h-6.16v-2.8h5.536V8.136h-5.536V5.688h6.032V3.576h-8.544zm11.975 0V15h8.08v-2.112h-5.568V3.576h-2.512zm11.0844 0V15h2.352V6.984h.032l2.8 8.016h1.936l2.8-8.096h.032V15h2.352V3.576h-3.536l-2.528 7.856h-.032l-2.672-7.856h-3.536zm18.1316 5.76c0-.50133.0534-.98667.16-1.456.1174-.46933.2987-.88533.544-1.248.2454-.37333.5654-.66667.96-.88.3947-.224.8747-.336 1.44-.336.5654 0 1.0454.112 1.44.336.3944.21333.7144.50667.9604.88.245.36267.421.77867.528 1.248.117.46933.176.95467.176 1.456 0 .48-.059.9493-.176 1.408-.107.448-.283.8533-.528 1.216-.246.3627-.566.656-.9604.88-.3946.2133-.8746.32-1.44.32-.5653 0-1.0453-.1067-1.44-.32-.3946-.224-.7146-.5173-.96-.88-.2453-.3627-.4266-.768-.544-1.216-.1066-.4587-.16-.928-.16-1.408zm-2.512 0c0 .832.128 1.6107.384 2.336.256.7147.624 1.3387 1.104 1.872.48.5333 1.0667.9547 1.76 1.264.704.2987 1.4934.448 2.368.448.8854 0 1.6747-.1493 2.3684-.448.693-.3093 1.28-.7307 1.76-1.264s.848-1.1573 1.104-1.872c.256-.7253.384-1.504.384-2.336 0-.85333-.128-1.64267-.384-2.368-.256-.736-.624-1.376-1.104-1.92-.48-.544-1.067-.97067-1.76-1.28-.6937-.30933-1.483-.464-2.3684-.464-.8746 0-1.664.15467-2.368.464-.6933.30933-1.28.736-1.76 1.28s-.848 1.184-1.104 1.92c-.256.72533-.384 1.51467-.384 2.368zm17.0774-3.648V15h2.512V5.688h3.424V3.576h-9.36v2.112h3.424zM41.836 25.574c0-.708.09-1.398.27-2.07.192-.672.48-1.272.864-1.8.396-.54.9-.972 1.512-1.296.612-.324 1.344-.486 2.196-.486.852 0 1.578.162 2.178.486.612.324 1.11.756 1.494 1.296.396.528.684 1.128.864 1.8.192.672.288 1.362.288 2.07 0 .696-.096 1.386-.288 2.07-.18.672-.468 1.278-.864 1.818-.384.528-.882.954-1.494 1.278-.6.324-1.326.486-2.178.486-.852 0-1.584-.162-2.196-.486-.612-.324-1.116-.75-1.512-1.278-.384-.54-.672-1.146-.864-1.818-.18-.684-.27-1.374-.27-2.07zm-1.224 0c0 .888.126 1.734.378 2.538.252.804.63 1.512 1.134 2.124.504.612 1.134 1.104 1.89 1.476.768.36 1.656.54 2.664.54 1.008 0 1.89-.18 2.646-.54.756-.372 1.386-.864 1.89-1.476s.882-1.32 1.134-2.124c.252-.804.378-1.65.378-2.538 0-.888-.126-1.734-.378-2.538-.252-.804-.63-1.512-1.134-2.124-.504-.624-1.134-1.116-1.89-1.476-.756-.372-1.638-.558-2.646-.558s-1.896.186-2.664.558c-.756.36-1.386.852-1.89 1.476-.504.612-.882 1.32-1.134 2.124-.252.804-.378 1.65-.378 2.538zm14.1878-6.426V32h1.134V19.148h-1.134zM66.6361 32V19.148h-1.134v5.328h-.036c-.12-.336-.294-.63-.522-.882-.216-.252-.468-.462-.756-.63-.288-.18-.6-.312-.936-.396-.324-.084-.66-.126-1.008-.126-.708 0-1.326.132-1.854.396-.516.264-.948.624-1.296 1.08-.348.444-.606.966-.774 1.566-.168.588-.252 1.212-.252 1.872 0 .66.084 1.29.252 1.89.168.588.426 1.11.774 1.566.348.444.78.798 1.296 1.062.528.252 1.146.378 1.854.378.336 0 .672-.048 1.008-.144.348-.096.672-.228.972-.396.3-.18.564-.396.792-.648.24-.252.42-.528.54-.828h.036V32h1.044zm-7.434-4.644c0-.48.054-.954.162-1.422.12-.48.3-.906.54-1.278.252-.372.57-.672.954-.9.384-.24.846-.36 1.386-.36.6 0 1.104.12 1.512.36.42.228.756.528 1.008.9.264.372.45.798.558 1.278.12.468.18.942.18 1.422s-.06.96-.18 1.44c-.108.468-.294.888-.558 1.26-.252.372-.588.678-1.008.918-.408.228-.912.342-1.512.342-.54 0-1.002-.114-1.386-.342-.384-.24-.702-.546-.954-.918-.24-.372-.42-.792-.54-1.26-.108-.48-.162-.96-.162-1.44zM70.96 22.712v-2.79h-1.134v2.79h-1.62v.954h1.62v6.354c-.012.792.132 1.338.432 1.638.3.288.828.432 1.584.432.168 0 .336-.006.504-.018.168-.012.336-.018.504-.018V31.1c-.324.036-.648.054-.972.054-.408-.024-.666-.138-.774-.342-.096-.216-.144-.51-.144-.882v-6.264h1.89v-.954h-1.89zm3.9042-3.564v1.818h1.134v-1.818h-1.134zm0 3.564V32h1.134v-9.288h-1.134zm3.6642 0V32h1.134v-5.184c0-.492.054-.942.162-1.35.108-.42.27-.78.486-1.08.228-.312.516-.552.864-.72.36-.18.78-.27 1.26-.27.36 0 .666.06.918.18s.45.288.594.504c.156.204.264.45.324.738.072.276.108.57.108.882V32h1.134v-5.256c0-.432.036-.846.108-1.242.084-.408.222-.768.414-1.08.192-.312.45-.558.774-.738.324-.192.732-.288 1.224-.288.816 0 1.386.204 1.71.612.324.396.486.978.486 1.746V32h1.134v-6.3c0-2.172-1.026-3.258-3.078-3.258-.612 0-1.188.15-1.728.45-.54.3-.948.756-1.224 1.368-.168-.612-.504-1.068-1.008-1.368-.492-.3-1.044-.45-1.656-.45-.756 0-1.38.162-1.872.486-.48.324-.87.774-1.17 1.35h-.054v-1.566h-1.044zm22.0326 3.996h-6.0124c.048-.42.144-.828.288-1.224.156-.408.36-.762.612-1.062.252-.312.558-.558.918-.738.36-.192.774-.288 1.242-.288.456 0 .864.096 1.224.288.36.18.666.426.918.738.2524.3.4444.648.5764 1.044.144.396.222.81.234 1.242zm-6.0124.954h7.1464c.024-.648-.036-1.284-.18-1.908-.144-.636-.384-1.194-.72-1.674-.324-.492-.75-.888-1.2784-1.188-.528-.3-1.164-.45-1.908-.45-.732 0-1.368.144-1.908.432-.528.276-.96.648-1.296 1.116-.336.456-.588.978-.756 1.566-.156.588-.234 1.188-.234 1.8 0 .66.078 1.29.234 1.89.168.588.42 1.11.756 1.566.336.444.768.798 1.296 1.062.54.252 1.176.378 1.908.378 1.176 0 2.082-.288 2.7184-.864.648-.576 1.092-1.392 1.332-2.448h-1.134c-.18.72-.504 1.296-.9724 1.728-.468.432-1.116.648-1.944.648-.54 0-1.002-.114-1.386-.342-.384-.228-.702-.516-.954-.864s-.438-.738-.558-1.17c-.108-.444-.162-.87-.162-1.278zm9.0284-4.95V32h1.134v-4.95c0-.492.084-.942.252-1.35.168-.42.402-.78.702-1.08.312-.3.678-.528 1.098-.684.42-.168.888-.24 1.404-.216v-1.134c-.84-.036-1.566.15-2.178.558-.6.408-1.044.99-1.332 1.746h-.036v-2.178h-1.044zm4.993 0L112.152 32h1.206l3.474-9.288h-1.17l-2.88 8.154h-.036l-2.916-8.154h-1.26zm16.414 3.996h-6.012c.048-.42.144-.828.288-1.224.156-.408.36-.762.612-1.062.252-.312.558-.558.918-.738.36-.192.774-.288 1.242-.288.456 0 .864.096 1.224.288.36.18.666.426.918.738.252.3.444.648.576 1.044.144.396.222.81.234 1.242zm-6.012.954h7.146c.024-.648-.036-1.284-.18-1.908-.144-.636-.384-1.194-.72-1.674-.324-.492-.75-.888-1.278-1.188-.528-.3-1.164-.45-1.908-.45-.732 0-1.368.144-1.908.432-.528.276-.96.648-1.296 1.116-.336.456-.588.978-.756 1.566-.156.588-.234 1.188-.234 1.8 0 .66.078 1.29.234 1.89.168.588.42 1.11.756 1.566.336.444.768.798 1.296 1.062.54.252 1.176.378 1.908.378 1.176 0 2.082-.288 2.718-.864.648-.576 1.092-1.392 1.332-2.448h-1.134c-.18.72-.504 1.296-.972 1.728-.468.432-1.116.648-1.944.648-.54 0-1.002-.114-1.386-.342-.384-.228-.702-.516-.954-.864s-.438-.738-.558-1.17c-.108-.444-.162-.87-.162-1.278zm9.028-4.95V32h1.134v-4.95c0-.492.084-.942.252-1.35.168-.42.402-.78.702-1.08.312-.3.678-.528 1.098-.684.42-.168.888-.24 1.404-.216v-1.134c-.84-.036-1.566.15-2.178.558-.6.408-1.044.99-1.332 1.746h-.036v-2.178H128zm11.6 2.718h1.134c-.024-.504-.126-.942-.306-1.314-.18-.372-.426-.684-.738-.936-.3-.252-.654-.438-1.062-.558-.396-.12-.828-.18-1.296-.18-.408 0-.822.048-1.242.144-.408.096-.78.246-1.116.45-.336.204-.612.474-.828.81-.204.336-.306.738-.306 1.206 0 .396.066.732.198 1.008.132.264.312.492.54.684.24.18.516.336.828.468.312.12.654.228 1.026.324l1.458.324c.252.06.498.132.738.216.252.084.474.192.666.324.192.12.342.276.45.468.12.18.18.408.18.684 0 .324-.084.6-.252.828-.156.216-.36.396-.612.54-.252.144-.528.246-.828.306-.288.06-.57.09-.846.09-.756 0-1.392-.192-1.908-.576-.504-.396-.78-.978-.828-1.746h-1.134c.096 1.14.48 1.968 1.152 2.484.684.516 1.572.774 2.664.774.432 0 .87-.048 1.314-.144.444-.096.84-.252 1.188-.468.36-.228.654-.516.882-.864.228-.36.342-.792.342-1.296 0-.408-.078-.762-.234-1.062-.156-.3-.36-.552-.612-.756-.24-.204-.522-.366-.846-.486-.312-.132-.63-.222-.954-.27l-1.512-.342c-.192-.048-.402-.108-.63-.18-.228-.084-.438-.186-.63-.306s-.354-.264-.486-.432c-.12-.18-.18-.396-.18-.648 0-.3.066-.552.198-.756.132-.204.306-.366.522-.486.216-.132.45-.222.702-.27.264-.06.522-.09.774-.09.324 0 .63.042.918.126.288.072.54.192.756.36.228.168.408.384.54.648.132.252.204.552.216.9zm3.482-6.282v1.818h1.134v-1.818h-1.134zm0 3.564V32h1.134v-9.288h-1.134zm10.216 2.916h1.134c-.132-1.068-.546-1.866-1.242-2.394-.684-.528-1.524-.792-2.52-.792-.708 0-1.338.132-1.89.396-.54.264-.996.618-1.368 1.062-.372.444-.654.966-.846 1.566-.192.588-.288 1.218-.288 1.89 0 .672.096 1.308.288 1.908.192.588.474 1.104.846 1.548.372.444.828.798 1.368 1.062.552.252 1.182.378 1.89.378 1.056 0 1.92-.312 2.592-.936.672-.636 1.086-1.518 1.242-2.646h-1.134c-.036.384-.132.738-.288 1.062-.156.324-.354.606-.594.846-.24.228-.516.408-.828.54-.312.132-.642.198-.99.198-.54 0-1.014-.114-1.422-.342-.408-.228-.75-.528-1.026-.9-.264-.372-.468-.792-.612-1.26-.132-.48-.198-.966-.198-1.458s.066-.972.198-1.44c.144-.48.348-.906.612-1.278.276-.372.618-.672 1.026-.9.408-.228.882-.342 1.422-.342.756 0 1.344.198 1.764.594.42.396.708.942.864 1.638zm3.124-6.48V32h1.134v-5.418c.012-.456.084-.876.216-1.26.144-.396.336-.732.576-1.008.252-.288.552-.51.9-.666.36-.168.768-.252 1.224-.252.456 0 .834.072 1.134.216.312.144.558.342.738.594.18.252.306.552.378.9.072.336.108.702.108 1.098V32h1.134v-5.976c0-.552-.054-1.05-.162-1.494-.108-.444-.294-.816-.558-1.116-.264-.312-.618-.552-1.062-.72-.432-.168-.972-.252-1.62-.252-.66 0-1.266.174-1.818.522-.552.336-.936.786-1.152 1.35h-.036v-5.166h-1.134zm16.724 7.56h-6.012c.048-.42.144-.828.288-1.224.156-.408.36-.762.612-1.062.252-.312.558-.558.918-.738.36-.192.774-.288 1.242-.288.456 0 .864.096 1.224.288.36.18.666.426.918.738.252.3.444.648.576 1.044.144.396.222.81.234 1.242zm-6.012.954h7.146c.024-.648-.036-1.284-.18-1.908-.144-.636-.384-1.194-.72-1.674-.324-.492-.75-.888-1.278-1.188-.528-.3-1.164-.45-1.908-.45-.732 0-1.368.144-1.908.432-.528.276-.96.648-1.296 1.116-.336.456-.588.978-.756 1.566-.156.588-.234 1.188-.234 1.8 0 .66.078 1.29.234 1.89.168.588.42 1.11.756 1.566.336.444.768.798 1.296 1.062.54.252 1.176.378 1.908.378 1.176 0 2.082-.288 2.718-.864.648-.576 1.092-1.392 1.332-2.448h-1.134c-.18.72-.504 1.296-.972 1.728-.468.432-1.116.648-1.944.648-.54 0-1.002-.114-1.386-.342-.384-.228-.702-.516-.954-.864s-.438-.738-.558-1.17c-.108-.444-.162-.87-.162-1.278zm9.028-4.95V32h1.134v-4.95c0-.492.084-.942.252-1.35.168-.42.402-.78.702-1.08.312-.3.678-.528 1.098-.684.42-.168.888-.24 1.404-.216v-1.134c-.84-.036-1.566.15-2.178.558-.6.408-1.044.99-1.332 1.746h-.036v-2.178h-1.044zM189.724 32v-9.288h-1.134v4.878c0 .468-.054.93-.162 1.386-.108.444-.276.84-.504 1.188-.228.348-.516.63-.864.846-.348.204-.768.306-1.26.306-.9 0-1.536-.216-1.908-.648-.36-.432-.552-1.068-.576-1.908v-6.048h-1.134v6.03c0 .552.06 1.044.18 1.476.12.432.306.798.558 1.098.264.3.6.528 1.008.684.42.168.924.252 1.512.252.696 0 1.326-.162 1.89-.486.576-.336 1.014-.816 1.314-1.44h.036V32h1.044zm2.486-9.288V32h1.134v-5.418c.012-.456.084-.876.216-1.26.144-.396.336-.732.576-1.008.252-.288.552-.51.9-.666.36-.168.768-.252 1.224-.252.456 0 .834.072 1.134.216.312.144.558.342.738.594.18.252.306.552.378.9.072.336.108.702.108 1.098V32h1.134v-5.976c0-.552-.054-1.05-.162-1.494-.108-.444-.294-.816-.558-1.116-.264-.312-.618-.552-1.062-.72-.432-.168-.972-.252-1.62-.252-.66 0-1.266.174-1.818.522-.552.336-.936.786-1.152 1.35h-.036v-1.602h-1.134zm17.894 8.532v-8.532h-1.134v1.602h-.036c-.108-.252-.264-.492-.468-.72-.192-.228-.414-.426-.666-.594-.252-.18-.534-.318-.846-.414-.3-.096-.624-.144-.972-.144-.672 0-1.272.126-1.8.378-.516.24-.954.576-1.314 1.008-.348.42-.618.918-.81 1.494-.18.564-.27 1.164-.27 1.8 0 .66.078 1.284.234 1.872.156.576.402 1.08.738 1.512.348.432.786.774 1.314 1.026.528.24 1.164.36 1.908.36.684 0 1.278-.174 1.782-.522.516-.348.906-.81 1.17-1.386h.036v1.26c0 1.128-.234 1.992-.702 2.592-.468.6-1.23.9-2.286.9-.312 0-.618-.036-.918-.108-.3-.06-.576-.162-.828-.306-.24-.144-.45-.336-.63-.576-.168-.228-.282-.516-.342-.864h-1.134c.036.492.168.912.396 1.26.24.36.534.654.882.882.36.228.762.396 1.206.504.444.108.9.162 1.368.162.756 0 1.392-.102 1.908-.306.528-.204.954-.498 1.278-.882.324-.384.558-.852.702-1.404.156-.552.234-1.17.234-1.854zm-4.122-.306c-.528 0-.984-.102-1.368-.306-.384-.216-.702-.492-.954-.828-.252-.348-.438-.744-.558-1.188-.12-.444-.18-.9-.18-1.368 0-.48.054-.948.162-1.404.12-.468.306-.882.558-1.242.252-.36.57-.648.954-.864.384-.228.846-.342 1.386-.342.54 0 .996.114 1.368.342.384.228.696.528.936.9.24.372.414.786.522 1.242.108.456.162.912.162 1.368 0 .468-.066.924-.198 1.368-.12.444-.306.84-.558 1.188-.252.336-.564.612-.936.828-.372.204-.804.306-1.296.306z" fill="#fff"/></svg>