<svg width="51" height="30" fill="none" xmlns="http://www.w3.org/2000/svg"><path fill-rule="evenodd" clip-rule="evenodd" d="M39.4767 11.1589c.6168-.1682 1.2897-.2243 1.9626-.2243 4.9907 0 9.0281 4.0374 9.1402 8.9719 0 4.9907-4.0374 9.0281-9.028 9.0281-4.9907 0-9.0281-4.0374-9.0281-9.0281 0-3.4205 1.9066-6.3925 4.7103-7.9065l-.5607-1.4019c-.0561-.1121 0-.3364.1682-.3925l-.6729-1.62616-.6168.28037c-.1683 1.1215-.729 1.79439-1.6823 2.35519H22.0374c-.7289 0-1.3458-.729-1.2897-1.45799l.1122-2.29906c.056-.4486.3925-.8972.8972-1.00935.9731-.20961 2.0702-.47518 3.2133-.75189l.0001-.00001c3.1382-.75965 6.6231-1.60324 8.8426-1.60324.2804 0 .4486.11215.6729.28037l-.9532-2.41121c-.0561-.2243-.2804-.28038-.5047-.28038h-2.8598c-.1682 0-.4486-.28037-.4486-.44859V.560748C29.7197.392523 30.0001 0 30.1683 0h3.5327c.6729 0 1.3458.560748 1.5701 1.17757l1.2336 3.36449.4486-.16823c.1683-.05607.3926.05608.4486.16823l.9533 2.74766c.0561.16823-.0561.39252-.1682.4486l-.3925.16822.6729 1.68225h.056c.1682-.05608.3925.05607.4486.16822l.5047 1.40189zm-4.4299 8.8037c0 3.5327 2.8598 6.3925 6.3925 6.3925s6.3925-2.8598 6.3925-6.4486c0-3.5327-2.8598-6.3925-6.3925-6.3925-.3364 0-.729.0561-1.0654.1122l1.7944 5.1028c.5047.2243.785.7289.785 1.2897 0 .8411-.6729 1.514-1.514 1.514s-1.514-.6729-1.514-1.514c0-.2804.0561-.4486.1682-.6729l-1.9626-4.8224c-1.8505 1.1215-3.0841 3.1402-3.0841 5.4392zm4.5983-12.67269c-.2804 0-.5047-.05607-.5608-.28037l-1.0654-3.30841c-.1682-.4486.1682-.8972.6729-.8972h2.2991c1.1182 0 .9464.47099.5982 1.42534-.228.6249-.5316 1.45704-.5982 2.4999 0 .33645-.3365.56074-.6168.56074h-.729zM7.177 9.36431l4.8785.61682-.0561.05607c-.056.1122.0561.2804.1683.3925l1.6822.8972c.1121.0561.2804.0561.3925-.1121l.4486-.8972 3.9813.5047c.6729.056 1.2897-.4486 1.3458-1.12154l.2804-2.74767c.1121-.84112-.5047-1.40187-1.2897-1.40187L7.177 5.6073c-1.57009 0-2.29907 3.42056 0 3.75701zm8.356 12.50509h2.299c.0561 0 .1122-.056.1122-.1121.056-.2243.056-.5607.056-.785 0-3.2524-1.6822-6.1122-4.2616-7.6823l-1.0094 2.5234c1.5701 1.1775 2.6916 3.028 2.6916 5.1589 0 .2243 0 .4485-.0561.7289 0 .1122.1122.1682.1683.1682zm-3.87-5.4396l-1.5701-.8972c-.11212-.0561-.3925.0561-.44857.1682l-1.28972 3.9813c-.4486.2804-.78505.729-.78505 1.3458 0 .8411.6729 1.514 1.51402 1.514.84112 0 1.51402-.6729 1.51402-1.514 0-.1858-.0385-.3331-.0836-.5057v-.0001l-.0001-.0005c-.0093-.0355-.0189-.0722-.0284-.1105l1.3457-3.5327c.0561-.1682 0-.3365-.1682-.4486zm.7294-.5045l-.056.1121c-.1122.2243-.2804.2243-.4486.1122l-1.6823-.8972c-.1121-.1121-.22427-.2804-.1682-.3925l.0561-.1122c.0561-.1682.2804-.2803.4486-.1682l1.6822.8972c.1122.0561.2243.3365.1682.4486zm11.6639.2239l-1.7944-3.9813c-.0561-.1683-.2243-.3926-.4486-.3926l-6.6729-.6729-.0436.0955c-.2631.5732-.4763 1.0377.2679 1.2503 3.3645 1.0094 4.0374 6.1683 4.2617 8.9159.0561.2804.2804.5608.6168.5608l3.5888.0561c.4486 0 .6729-.5608.4486-.8412-1.1215-1.3458-.6729-3.7009-.2243-4.4299.0561-.2243.0561-.3925 0-.5607zm-10.9347-2.0181l-.0561.1121c-.056.1682-.2803.1682-.3925.1122l-1.6822-.8972c-.1122-.1122-.2243-.2804-.1683-.3926l.0561-.1121c.0561-.1682.2804-.2804.4486-.1682l1.6262.8972c.1121.056.2243.3364.1682.4486zm16.5978 2.1307l1.2337-4.0935c.0561-.2243-.1122-.3925-.3925-.3925h-6.3365c-.2243 0-.3925.2243-.2804.4486l1.6823 4.4299c-.5608.5608-.8972 1.3458-.8972 2.1869 0 1.1776.5046 2.187 1.6261 2.7477v.8411H12.3923c-.3311 0-.642.1015-1.0477.234-.7622.2489-1.85936.6071-4.05508.6071v1.2337c2.17383 0 3.24748.3277 4.00728.5597.4162.127.7383.2253 1.0955.2253h13.9066c1.7944 0 2.9159-.8411 2.9159-2.6355v-.785c1.1215-.5047 1.9065-1.6262 1.9065-2.9159-.0561-1.1215-.6168-2.0748-1.4019-2.6916zm-13.4016 9.5326h-3.1402c-1.1215 1.1215-2.5795 1.5701-4.14956 1.5701-3.53271 0-6.39253-2.8598-6.39253-6.3925s2.85982-6.3925 6.39253-6.3925h.00001c.2243 0 .50467 0 .72896.0561l.84109-2.5795c-.5046-.056-1.00931-.1121-1.57006-.1121C4.03738 11.944 0 15.9814 0 20.972c0 4.9907 4.03738 9.0281 9.02804 9.0281 3.02806 0 5.77566-1.5701 7.45796-3.9253.1121-.1121-.0561-.2804-.1682-.2804zm-3.6444-10.8222l-.0561.1122c-.056.1682-.2243.1682-.3925.1121l-1.6822-.8972c-.1122-.1121-.2243-.2803-.1683-.3925l.0561-.1121c.0561-.1683.2804-.2804.4486-.1682l1.6262.8971c.1121.0561.2243.3365.1682.4486zm-1.4584-3.0843L11.1589 12c-.0561.1122.0561.2804.1682.3925l1.6822.8972c.1122.0561.2804.0561.3926-.1121l.056-.1122c.0561-.1121-.056-.3925-.1682-.4486l-1.6262-.8972c-.2243-.1121-.3925 0-.4485.1683zm2.2428.5047l-1.6822-.8972c-.1122-.0561-.2804-.2804-.1683-.3925l.0561-.1122c.0561-.1682.2804-.2803.4486-.1682l1.6262.8972c.1121.0561.2243.3365.1682.4486l-.0561.1122c-.1121.1682-.2803.1682-.3925.1121z" fill="#2F80ED"/></svg>