<svg width="78" height="30" fill="none" xmlns="http://www.w3.org/2000/svg"><path fill-rule="evenodd" clip-rule="evenodd" d="M51.8412 8.04967h22.4141c3.8424 0 3.202 5.44343 1.601 7.04443v.9606h-.6404c-.6404 0-.6404.9606 0 .9606h.9606v.6404h-.9606c-.6404 0-.6404.9606 0 .9606h1.2808v.6404h-1.2808c-.6404 0-.6404.9606 0 .9606h1.2808v.6404h-1.2808c-.6404 0-.6404.6404 0 .6404h1.2808c-.3202.9606-.6404 1.6011-1.601 2.2415-.1099.0549-.2103.1098-.3078.1632-.4708.2574-.8726.4772-1.9336.4772 0-4.4829-3.5222-8.3253-8.0051-8.3253-4.4828 0-8.005 3.8424-7.6848 8.3253H23.3432v-1.2808H54.723l-1.2808-.9607H23.023c0-.3751-.1099-.6404-.2009-.8601-.0643-.1554-.1193-.288-.1193-.4207H54.723l-1.2808-1.2808H22.0624c-1.2808-1.9212-3.8424-3.5222-6.7242-3.5222-4.4828 0-8.00506 3.8424-7.68486 8.3253H1.5695c-.6404 0-.960598-.3202-.960598-.9606v-.6404c-.960602 0-.960602-5.1233 1.280808-5.1233 1.60101-2.8818 4.48283-5.7636 10.24649-7.68482 9.6074-1.69543 23.454-1.64531 33.1776-1.61011 1.2949.00468 2.5167.00911 3.6456.00911.3202 0 .6404-.32021.3202-.64041-2.2415-8.005039-16.3303-5.76363-16.3303-5.44343v5.12323c-1.521.08005-3.0419.14009-4.5629.20013-4.5629.18011-9.1257.36022-13.6886 1.08068C23.3432.685036 47.0381-5.719 51.8412 8.04967zM37.4321 10.9315h-3.8424l-.3202.3202v.6404l.3202.3202h3.8424l.3202-.3202v-.6404l-.3202-.3202zm38.4242.6404c0-1.2808-.3202-2.24142-.9606-2.24142-.3202 0-.9606.96062-.9606 2.24142 0 1.2808.6404 2.2414.9606 2.2414.6404 0 .9606-.9606.9606-2.2414zm-58.2775 7.0442c-2.8818-1.2808-6.404 0-7.68483 2.8818-1.2808 2.8819 0 6.4041 2.88183 7.6849 3.202 1.601 6.404 0 8.005-2.8818 1.2808-2.8819 0-6.4041-3.202-7.6849zm.9606 5.4435c0 1.601-1.601 3.202-3.202 3.202-1.9212 0-3.202-1.601-3.202-3.202 0-1.9213 1.2808-3.2021 3.202-3.2021 1.601 0 3.202 1.2808 3.202 3.2021zm48.6715-5.1227c-3.202-1.601-6.404-.3202-8.005 2.8818-1.2808 2.8819 0 6.4041 3.202 7.6849 2.8818 1.2808 6.404 0 7.6848-2.8818 1.2808-2.8819 0-6.4041-2.8818-7.6849zm.6404 5.1232c0 1.9213-1.2808 3.2021-3.202 3.2021-1.601 0-3.202-1.2808-3.202-3.2021 0-1.601 1.601-3.202 3.202-3.202 1.9212 0 3.202 1.601 3.202 3.202zM63.047 24.06c0 .8842.7168 1.601 1.601 1.601s1.601-.7168 1.601-1.601-.7168-1.601-1.601-1.601-1.601.7168-1.601 1.601zm-47.7099 1.601c-.8842 0-1.601-.7168-1.601-1.601s.7168-1.601 1.601-1.601c.8843 0 1.6011.7168 1.6011 1.601s-.7168 1.601-1.6011 1.601z" fill="#2F80ED"/></svg>