<svg xmlns="http://www.w3.org/2000/svg" width="79" height="83" fill="none"><path fill="#2A72D3" fill-rule="evenodd" d="M41.7041 29.1c.2.2.4.3.7.3.3 0 .5-.1.7-.3.4-.4 9.6-10.7 9.2-28.1 0-.6-.5-1-1-1-.6 0-1 .5-1 1 .4 16.6-8.5 26.6-8.6 26.7-.4.4-.4 1.1 0 1.4zM73.404 2.4c.4-.1.8001 0 1 .3.2001.3.3001.7.1 1l-1.3999 3 1.6999 3c.2001.4.2001.8 0 1.1-.2999.3-.5999.4-1 .4l-3.3-.4-2.2 2.5c-.1999.2-.5.3-.8.3h-.2999c-.3-.1-.6-.4-.7001-.8l-.6-3.3-2.9999-1.3c-.3-.2-.6-.5-.6-.9s.2-.7.5-.9l2.9-1.7.5-3.3c0-.3.2-.700001.5999-.800001.3001-.1.7001-.099999 1 .200001l2.4001 2.3 3.1999-.7zm-4 6.6c.2001-.2.6001-.3.9-.3l1.6.1-.9-1.6c-.1-.3-.1-.6 0-.9l.8-1.6-1.8.4c-.2999.1-.6999 0-.8999-.2L67.804 3.7l-.1999 1.8c0 .3-.2.6-.5.8l-1.6001.9 1.7001.7c.3.1.5.4.5999.7l.4001 1.8L69.404 9zm-47 3.4c.3.2.5001.6.4001 1-.1.4-.4.7-.8.7l-3.2.9-1 3.2c-.1.4-.4.6-.8.7h-.1c-.3 0-.6-.1-.8001-.4l-1.8999-2.7h-3.3c-.4 0-.7-.2-.9-.6-.20005-.4-.10005-.8.0999-1.1l2-2.6-1-3.2c-.0999-.3.0001-.7.3001-1 .2-.2.6-.3 1-.2l3.1 1.1 2.7-1.9c.3999-.3.8-.3 1.1-.1.2999.2.5.5.5.9l-.1 3.3 2.6999 2zm-5.3 1.5c.1001-.3.4001-.5.7001-.6l1.7-.5-1.5-1.1c-.3-.2-.4001-.5-.4001-.8l.1001-1.8-1.5 1.1c-.2001.2-.6.2-.9.1l-1.7001-.6.7001 1.8c.1.3-.0001.6-.2001.9l-1.0999 1.4h1.8c.3 0 .5999.1.7999.4l1 1.5.5-1.8zm46.4 25.6c.6628 0 1.2001-.5373 1.2001-1.2s-.5373-1.2-1.2001-1.2c-.6627 0-1.1999.5373-1.1999 1.2s.5372 1.2 1.1999 1.2zM20.2041 25.8c0 .6627-.5373 1.2-1.2 1.2-.6628 0-1.2-.5373-1.2-1.2s.5372-1.2 1.2-1.2c.6627 0 1.2.5373 1.2 1.2zm53.7999-5.4c.6628 0 1.2001-.5373 1.2001-1.2S74.6668 18 74.004 18c-.6627 0-1.2.5373-1.2 1.2s.5373 1.2 1.2 1.2zm-28.8999-3.5c0 .6627-.5373 1.2-1.2 1.2-.6628 0-1.2-.5373-1.2-1.2s.5372-1.2 1.2-1.2c.6627 0 1.2.5373 1.2 1.2zm25.1 40c-2.2 0-3.9001 1.8-3.9001 3.9 0 2.2 1.8001 3.9 3.9001 3.9 2.2 0 3.9-1.8 3.9-3.9 0-2.1-1.7-3.9-3.9-3.9zm0 5.8c-1.1 0-1.9001-.9-1.9001-1.9 0-1 .9001-1.9 1.9001-1.9 1 0 1.9.9 1.9 1.9 0 1-.8 1.9-1.9 1.9zm-34-58.2c0-2.1 1.7-3.900001 3.9-3.900001S44.0041 2.4 44.0041 4.5s-1.7 3.9-3.9 3.9c-2.1001 0-3.9-1.7-3.9-3.9zm2 0c0 1 .7999 1.9 1.9 1.9 1.1 0 1.9-.9 1.9-1.9 0-1-.9-1.9-1.9-1.9-1 0-1.9.9-1.9 1.9zm20.5 11.4c-2.2 0-3.9 1.8-3.9 3.9 0 2.2 1.8 3.9 3.9 3.9 2.2 0 3.9-1.8 3.9-3.9 0-2.1-1.7-3.9-3.9-3.9zm0 5.9c-1.1 0-1.9-.9-1.9-1.9 0-1 .9-1.9 1.9-1.9 1 0 1.9.9 1.9 1.9 0 1-.8 1.9-1.9 1.9zm-31.3 3c.3 0 .7.1.9.3l28.8 28.7c.3.3.3999.6.2999.9-.1.3-.2999.6-.6.7L1.40405 82c-.1.1-.3.1-.4.1-.299998 0-.499998-.1-.699998-.3-.30000031-.3-.4000001-.7-.2-1.1L26.7041 25.4c.1-.3.4-.5.7-.6zm7.7 9.9l7.1999 25.5 6.9001-3.3-3.3001-11.4-10.7999-10.8zm-2.9-2.9l-4.3-4.3-2.8 6 8.9 30.8 6.6-3.2-8.4-29.3zm-13.3 14.3l6.5 22.2 6.6-3.2-8.3-29-4.8 10zm-6.1 12.6l4 13.7 6.8-3.2-6-20.4-4.8 9.9zM6.90405 71.1l1.6 5.3 6.60005-3.1-3.5-11.9-4.70005 9.7zm-.2 6.2l-1.1-3.5-2.5 5.2 3.6-1.7zM48.804 48.4l2.2001 7.6 3.6-1.8-5.8001-5.8zm1.3595-10.7673c.8894-1.0231 11.2505-12.941 27.9406-10.4327.6.1.7999.7.7999 1.2s-.6.9-1.1.8c-15.6659-2.4326-25.4617 8.9582-26.0706 9.6663-.0168.0196-.0267.031-.0293.0337-.2.3-.5.4-.8001.4-.1999 0-.4-.1-.6-.2-.5-.3-.5-1-.2-1.4.0071-.0071.027-.0299.0595-.0673zM33.9041 22.1h.2c.5 0 .9-.3 1-.8.1-.4 2.3-10.4-4.5-16.4-.4-.4-1-.3-1.4.1-.4.4-.3 1 .1 1.4 5.6124 4.9466 4.0761 13.5128 3.9131 14.4221-.0084.0465-.0131.073-.0131.0779-.1.5.2 1 .7 1.2zm23.8 24.2c-.1-.5.2-1 .7-1.2.0266-.0053.0863-.0208.1764-.0442 1.6032-.4164 12.8215-3.3301 18.1236 4.2442.4.5.2 1.1-.2 1.4-.2001.1-.4.2-.6.2-.3 0-.6-.1-.8-.4-4.6376-6.5304-14.9182-3.8347-16.0911-3.5272-.0664.0174-.1036.0272-.1089.0272-.5.1-1-.2-1.2-.7z" clip-rule="evenodd"/></svg>