<svg width="54" height="45" fill="none" xmlns="http://www.w3.org/2000/svg"><path fill-rule="evenodd" clip-rule="evenodd" d="M26.2982 0c.8311 0 1.4841.653036 1.4841 1.48417h-.0593v2.07784H7.18205V1.48417C7.18205.653036 7.83509 0 8.66622 0H26.2982zm22.62 24.697c-1.6622-1.0686-3.6213-1.6622-5.7586-1.6622-5.2836 0-9.6768 3.6807-10.686 8.6675h-5.996c-.5343-7.3615-6.6491-13.1201-14.1294-13.1201-3.1464 0-6.05538 1.0687-8.43005 2.7903l-.47494-.4749c-.3562-.3562-.41557-.9499-.1781-1.3655.47494-.8311 1.36544-2.1372 2.61214-3.0871L7.24269 5.04661H27.7243L29.7427 16.445h5.3431V9.38039c0-.3562.2374-.59367.5343-.71241V1.78143h-1.5436V.712827h2.6715V8.60862c.3562.05937.6531.3562.6531.77177v7.00531h10.033c.8311 0 1.4841.653 1.4841 1.4841v6.8272zm-32.4143-8.5488c.5343 0 1.0093-.4749 1.0093-1.0092V8.01495c0-.5343-.475-1.00924-1.0093-1.00924h-6.4116c-.5343 0-.94987.41557-1.00924.94987L8.6675 15.0796c-.05937.5937.41556 1.0686 1.00923 1.0686h6.82717zm7.9552 4.8087h2.2559c.8312 0 1.4842-.7717 1.4248-1.6622L26.5369 8.19305c-.0593-.65303-.653-1.18734-1.3654-1.18734H20.719c-.7718 0-1.4248.65304-1.4248 1.42481v8.19258c0 .475.1781.8905.5343 1.128l3.7994 2.909c.2375.1781.5344.2968.8312.2968zm-.7124 9.7951c-.1187-.8906-.3562-1.7217-.653-2.4935l.7124-.7124c-.4156-.8905-.8905-1.781-1.4842-2.5527l-.9498.2968c-.5343-.653-1.128-1.3061-1.8404-1.8404l.2375-.9498c-.7718-.5937-1.6623-1.0686-2.5528-1.4842l-.5937.7718c-.7717-.2969-1.6029-.5343-2.4934-.6531l-.2375-.9498c-.4749-.1188-.9498-.1188-1.4841-.1188-.475 0-1.0093.0594-1.4842.1188l-.2375.8905c-.89047.1187-1.7216.3562-2.49337.653l-.7124-.7124c-.89051.4156-1.78101.8905-2.55278 1.4842l.23747.9498c-.65304.5343-1.30607 1.128-1.84038 1.8404l-.94987-.2375c-.59366.7718-1.0686 1.6623-1.484167 2.5528l.712407.7124c-.03154.1262-.06494.256-.09921.3893h-.00001c-.15927.6193-.33738 1.3119-.43509 2.0448l-.949866.2374C.0593668 31.4644 0 31.9393 0 32.4736c0 .4749.0593668 1.0092.118734 1.4842l.949866.2374c.11874.8312.3562 1.6623.65304 2.4934l-.7124.7124c.41556.8905.8905 1.781 1.48417 2.5528l.94987-.2375c.5343.6531 1.12797 1.3061 1.84037 1.8404l-.23747.9499c.77177.5937 1.66228 1.0686 2.55278 1.4842l.7124-.7124c.77177.2968 1.60291.5343 2.49344.653l.2374.9499c.475.0593.9499.1187 1.4842.1187.4749 0 1.0092-.0594 1.4842-.1187l.2374-.9499c.8906-.1187 1.7217-.3562 2.4935-.653l.7124.7124c.8905-.4156 1.781-.8905 2.5527-1.4842l-.4155-1.0686c.653-.5343 1.306-1.128 1.8403-1.8404l.9499.2375c.5937-.7718 1.0686-1.6623 1.4842-2.5528l-.7718-.5937c.2968-.7717.5343-1.6029.653-2.4934l.9499-.2374v-.0001c.0594-.4749.1187-.9498.1187-1.4841 0-.4749-.0593-1.0092-.1187-1.4842l-.9499-.2374zm-11.339 7.777c-3.32457 0-6.05545-2.7309-6.05545-6.0554 0-3.3246 2.73088-6.0554 6.05545-6.0554 3.3245 0 6.0554 2.7308 6.0554 6.0554 0 3.3245-2.7309 6.0554-6.0554 6.0554zm41.0225-4.096c0 .4156 0 .7718-.0594 1.1873l-.7718.2969c-.1187.653-.2968 1.3061-.5343 1.9591l.5937.5343c-.2968.7124-.7124 1.3654-1.1873 2.0185l-.7718-.2375c-.4156.5343-.8905 1.0092-1.4248 1.4248l.0594.5937c-.5937.4749-1.3061.8905-2.0185 1.1873l-.5343-.5937c-.5937.2375-1.2467.4156-1.9591.5343l-.1781.7718c-.2078 0-.4008.0149-.5937.0297h-.0001c-.1929.0148-.3858.0297-.5936.0297-.4155 0-.7717 0-1.1873-.0594l-.1781-.7718c-.653-.1187-1.3061-.2968-1.9591-.5343l-.5343.5937c-.7124-.2968-1.3654-.7124-2.0185-1.1873l.2375-.7718c-.5343-.4156-1.0093-.8905-1.4248-1.4248l-.7718.2375c-.4749-.5937-.8905-1.3061-1.1873-2.0185l.5936-.5343c-.2374-.5937-.4155-1.2467-.5343-1.9591l-.7717-.1781c0-.2078-.0149-.4007-.0297-.5937-.0149-.1929-.0297-.3859-.0297-.5937 0-.4155 0-.7717.0594-1.1873l.7717-.1781c.1188-.653.2969-1.3061.5343-1.9591l-.5936-.5343c.2968-.7124.7124-1.3654 1.1873-2.0185l.8311.2375c.4156-.5343.8906-1.0092 1.4249-1.4248l-.2375-.7718c.5937-.4749 1.3061-.8905 2.0185-1.1873l.5343.5937c.5936-.2375 1.2467-.4156 1.9591-.5344l.2968-.7124c.2078 0 .4007-.0148.5937-.0296.1929-.0149.3858-.0297.5936-.0297.4156 0 .7718 0 1.1874.0593l.1781.7718c.653.1187 1.306.2968 1.9591.5343l.5343-.5937c.7124.2969 1.3654.7125 2.0185 1.1874l-.2375.7718c.5343.4155 1.0092.8905 1.4248 1.4248l.7718-.2375c.4749.5937.8905 1.3061 1.1873 2.0185l-.5937.5343c.2375.5936.4156 1.2467.5343 1.9591l.7718.1781c0 .2078.0148.4007.0297.5936.0148.193.0297.3859.0297.5937zm-15.0198 0c0 2.8496 2.3153 5.1056 5.1055 5.1056 2.8496 0 5.1056-2.256 5.1056-5.1056s-2.3154-5.1055-5.1056-5.1055c-2.8496 0-5.1055 2.3153-5.1055 5.1055zm-26.0018.8309c1.541 0 2.7902-1.2492 2.7902-2.7902s-1.2492-2.7902-2.7902-2.7902-2.79025 1.2492-2.79025 2.7902 1.24925 2.7902 2.79025 2.7902zm33.5426-.8321c0 1.3443-1.0898 2.434-2.4341 2.434-1.3443 0-2.434-1.0897-2.434-2.434 0-1.3443 1.0897-2.4341 2.434-2.4341 1.3443 0 2.4341 1.0898 2.4341 2.4341z" fill="#2F80ED"/></svg>