<svg width="82" height="26" fill="none" xmlns="http://www.w3.org/2000/svg"><path d="M65.8037 19.8176c0-1.8631 1.5245-3.3028 3.3029-3.3028 1.7785 0 3.3029 1.5244 3.3029 3.3028 0 1.8632-1.5244 3.303-3.3029 3.303-1.7784 0-3.3029-1.4398-3.3029-3.303zm-2.8794 0c0 3.3876 2.7948 6.1824 6.1823 6.1824 3.3876 0 6.1824-2.7948 6.1824-6.1824 0-3.3875-2.7948-6.1823-6.1824-6.1823-3.3875 0-6.1823 2.7948-6.1823 6.1823zm-49.6281 0c0-1.8631 1.5245-3.3028 3.3029-3.3028 1.8632 0 3.3029 1.5244 3.3029 3.3028 0 1.8632-1.5244 3.303-3.3029 3.303-1.7784.0847-3.3029-1.4398-3.3029-3.303zm-2.8794 0c0 3.3876 2.7948 6.1824 6.1823 6.1824 3.3876 0 6.1824-2.7948 6.1824-6.1824 0-3.3875-2.7948-6.1823-6.1824-6.1823-3.3875 0-6.1823 2.7948-6.1823 6.1823zM51.6606 6.18266l-.8469-.08469c-.5928-.08469-1.1856.42343-1.1856 1.01625 0 .42345.1693.76222.5081 1.01629H33.1983c-.9316 0-.9316-.93159-.9316-.93159V2.541c0-.93159.9316-.93159.9316-.93159h1.4397c4.0651 0 7.9608 0 11.7719 1.69379 2.0325.93158 3.7263 1.7785 5.2507 2.87946zm-21.2571.93156c0 1.01628-.8469 1.01629-.8469 1.01629H17.7848c-3.6417 0-.6775-2.28663-.6775-2.28663s2.456-1.86317 5.5895-2.96413c.0847 0 .1694-.08467.1694-.08467.0847 0 .254-.08469.3387-.08469s.2541-.0847.3388-.0847.0847 0 .1694-.08469c1.6938-.50814 3.6416-.59283 5.5048-.7622.9316-.08469.9316.93159.9316.93159l.254 4.40383zM79.9469 14.821v-1.6091c0-.7622.1694-1.101-1.9479-2.456-3.6416-2.11725-15.0747-2.87946-19.0551-3.04884-2.2019-1.35503-9.7393-5.25075-11.6025-6.01296C45.0548.677827 42.7682.254385 40.3969.0850057c-.7622-.08468946-1.355-.08469463-1.6938-.08469463H30.2341c-1.1856 0-8.0455-.08468937-12.7034 2.54068893C11.8565 5.67451 5.92827 6.69078 5.92827 6.69078H3.13351s-1.86316.00001-1.77847 1.86318L1.69379 13.72h-.16938S0 13.72 0 15.2444l.423448 3.3876c.084689.4235.33876 3.2182 3.218202 3.2182l5.75889.4235c-.25407-.7622-.42345-1.5245-.42345-2.3714 0-4.0651 3.30291-7.3679 7.36801-7.3679s7.368 3.3028 7.368 7.3679c0 1.3551-.3388 2.5407-1.0163 3.6417h39.8041c-.5929-1.101-1.0163-2.2866-1.0163-3.6417 0-4.0651 3.3029-7.3679 7.368-7.3679s7.368 3.3028 7.368 7.3679c0 .8469-.1694 1.6938-.4235 2.456h2.3713s1.8632.0001 2.1173-1.7784l.3387-2.5407v-.2541c.4235-.2541.6775-.7622.6775-1.2703.2541-1.0163-.4234-1.6938-1.355-1.6938z" fill="#2F80ED"/></svg>